# xmcd
#
# Track frame offsets: 
#        150
#        11683
#        32681
#        52770
#        66245
#        82628
#        99468
#        117356
#        136466
#        150701
#        166830
#        174856
#
# Disc length: 2501 seconds
#
# Revision: 3
# Processed by: cddbd v1.5.2PL0 Copyright (c) Steve Scherf et al.
# Submitted via: ExactAudioCopy v1.1
#
DISCID=8609c30c
DTITLE=Peter Karp and Sue Foley - Beyond The Crossroads
DYEAR=2012
DGENRE=Blues Rock
TTITLE0=We're Gonna Make It
TTITLE1=Analyze'n Blues
TTITLE2=Beyond The Crossroads
TTITLE3=Fine Love
TTITLE4=At The Same Time
TTITLE5=Take Your Time
TTITLE6=More Than I Bargained For
TTITLE7=Blowin'
TTITLE8=Resistance
TTITLE9=Chance Of Rain
TTITLE10=Plank Spank
TTITLE11=You've Got a Problem
EXTD=YEAR: 2012
EXTT0=
EXTT1=
EXTT2=
EXTT3=
EXTT4=
EXTT5=
EXTT6=
EXTT7=
EXTT8=
EXTT9=
EXTT10=
EXTT11=
PLAYORDER=
